<svg xmlns="http://www.w3.org/2000/svg" width="1200" height="630" viewBox="0 0 1200 630">
  <!-- Background gradient -->
  <defs>
    <linearGradient id="bgGradient" x1="0%" y1="0%" x2="100%" y2="100%">
      <stop offset="0%" style="stop-color:#667eea;stop-opacity:1" />
      <stop offset="100%" style="stop-color:#764ba2;stop-opacity:1" />
    </linearGradient>
  </defs>

  <!-- Background -->
  <rect width="1200" height="630" fill="url(#bgGradient)"/>

  <!-- Book icon (left side, smaller) -->
  <g transform="translate(60, 165)">
    <path fill="white" opacity="0.9" d="M249.6 471.5c10.8 3.8 22.4-4.1 22.4-15.5V78.6c0-4.2-1.6-8.4-5-11C247.4 52 202.4 32 144 32C93.5 32 46.3 45.3 18.1 56.1C6.8 60.5 0 71.7 0 83.8V454.1c0 11.9 12.8 20.2 24.1 16.5C55.6 460.1 105.5 448 144 448c33.9 0 79 14 105.6 23.5zm76.8 0C353 462 398.1 448 432 448c38.5 0 88.4 12.1 119.9 22.6c11.3 3.8 24.1-4.6 24.1-16.5V83.8c0-12.1-6.8-23.3-18.1-27.6C529.7 45.3 482.5 32 432 32c-58.4 0-103.4 20-123 35.6c-3.3 2.6-5 6.8-5 11V456c0 11.4 11.7 19.3 22.4 15.5z" transform="scale(0.5)"/>
  </g>

  <!-- Title (right side, larger) -->
  <text x="520" y="260" font-family="'Segoe UI', Arial, sans-serif" font-size="95" font-weight="bold" fill="white" text-anchor="start">
    GreatReads
  </text>

  <!-- Subtitle (right side, larger) -->
  <text x="520" y="340" font-family="'Segoe UI', Arial, sans-serif" font-size="40" fill="white" opacity="0.9" text-anchor="start">
    Your Interactive Reading Tracker
  </text>

  <!-- Features (right side) -->
  <text x="520" y="420" font-family="'Segoe UI', Arial, sans-serif" font-size="28" fill="white" opacity="0.8" text-anchor="start">
    Track • Organize • Discover
  </text>
</svg>

